<svg width="48" height="49" viewBox="0 0 48 49" fill="none" xmlns="http://www.w3.org/2000/svg">
<ellipse cx="25.1956" cy="26.89" rx="22.7073" ry="22.1098" fill="#E7E8FF"/>
<g clip-path="url(#clip0_330_41446)">
<path d="M21.1492 32.1296C19.9676 32.1114 18.8285 31.6866 17.9235 30.9268L11.9644 25.6784C11.0267 24.8022 9.59273 24.7328 8.57476 25.5144L0.100803 31.7468V35.7924C0.0398999 36.8777 0.870458 37.8068 1.95572 37.8677C2.0116 37.8709 2.06769 37.8716 2.12367 37.8699H32.138C33.3408 37.8699 34.5436 36.9952 34.5436 35.7924V25.1864L23.7733 31.4189C22.9816 31.8948 22.073 32.1409 21.1492 32.1296Z" fill="#0A1D3C"/>
<path d="M20.7122 21.524C22.0407 21.524 23.1177 20.447 23.1177 19.1184C23.1177 17.7899 22.0407 16.7129 20.7122 16.7129C19.3836 16.7129 18.3066 17.7899 18.3066 19.1184C18.3066 20.447 19.3836 21.524 20.7122 21.524Z" fill="#0A1D3C"/>
<path d="M40.2299 7.03582C39.881 6.56032 39.3418 6.26083 38.7538 6.21573L8.95807 2.77148C8.37719 2.72282 7.79747 2.87738 7.31799 3.20889C6.89334 3.57766 6.60463 4.07817 6.49789 4.63037L6.00586 8.89471H32.1387C34.6301 8.95122 36.6447 10.9418 36.7311 13.4324V32.7312C36.7311 32.6219 37.2231 32.5125 37.4418 32.2938C37.8945 31.9383 38.1569 31.3932 38.1526 30.8177L40.722 8.62128C40.7788 8.04794 40.6013 7.47606 40.2299 7.03582Z" fill="#0A1D3C"/>
<path d="M32.1368 11.0811H2.12248C0.919703 11.0811 0.0996094 12.2291 0.0996094 13.4319V29.0131L7.31616 23.7647C9.14806 22.4058 11.6823 22.52 13.3847 24.0381L19.3984 29.2865C20.3053 30.0563 21.6006 30.1661 22.624 29.5598L34.5423 22.6166V13.4319C34.4596 12.1484 33.4219 11.1343 32.1368 11.0811ZM20.7106 23.71C18.1743 23.71 16.1182 21.654 16.1182 19.1176C16.1182 16.5813 18.1742 14.5252 20.7106 14.5252C23.2468 14.5252 25.303 16.5812 25.303 19.1176C25.303 21.654 23.2469 23.71 20.7106 23.71Z" fill="#0A1D3C"/>
</g>
<defs>
<clipPath id="clip0_330_41446">
<rect width="40.6341" height="40.6341" fill="white" transform="translate(0.0976562)"/>
</clipPath>
</defs>
</svg>
