<svg width="14" height="13" viewBox="0 0 14 13" fill="none" xmlns="http://www.w3.org/2000/svg">
<path d="M0.500704 4.14841L0.500704 4.1484C0.471739 2.5619 1.33624 1.46061 2.49964 1.06444C3.66753 0.666733 5.23864 0.950002 6.64351 2.37851L7 2.74099L7.35649 2.37851C8.76115 0.950204 10.3321 0.666779 11.5 1.06431C12.6634 1.46029 13.528 2.56134 13.4993 4.14786C13.4734 5.57959 12.4446 7.10173 11.0139 8.48953C9.70329 9.76077 8.14245 10.8358 6.99999 11.5167C5.8576 10.8359 4.2969 9.76092 2.98638 8.48979C1.55571 7.10212 0.526823 5.58007 0.500704 4.14841ZM0.000813055 4.15753L0.000806669 4.15753L0.000813055 4.15753Z" stroke="#0A1D3C"/>
</svg>
