<svg width="56" height="50" viewBox="0 0 56 50" fill="none" xmlns="http://www.w3.org/2000/svg">
<ellipse cx="32.3543" cy="27.5" rx="23.1707" ry="22.5" fill="#E6F3F2"/>
<path d="M17.2816 22.4585H13.6149C10.8201 22.4619 8.14079 23.5736 6.16458 25.5498C4.18837 27.526 3.07664 30.2054 3.07324 33.0002C3.07421 34.337 3.6057 35.6188 4.55098 36.5641C5.49627 37.5094 6.77807 38.0409 8.11491 38.0418H22.7816C24.1184 38.0409 25.4002 37.5094 26.3455 36.5641C27.2908 35.6188 27.8223 34.337 27.8232 33.0002C27.8198 30.2054 26.7081 27.526 24.7319 25.5498C22.7557 23.5736 20.0764 22.4619 17.2816 22.4585Z" fill="#80CCC3"/>
<path d="M15.4495 21.5417C20.259 21.5417 24.1579 17.6428 24.1579 12.8333C24.1579 8.02385 20.259 4.125 15.4495 4.125C10.6401 4.125 6.74121 8.02385 6.74121 12.8333C6.74121 17.6428 10.6401 21.5417 15.4495 21.5417Z" fill="#80CCC3"/>
<path d="M42.4896 29.3334C42.4901 29.9956 42.36 30.6514 42.1068 31.2633C41.8536 31.8752 41.4823 32.4312 41.014 32.8995C40.5458 33.3677 39.9898 33.7391 39.3779 33.9923C38.766 34.2455 38.1102 34.3755 37.448 34.3751H29.5096C29.6056 33.923 29.6548 33.4622 29.6563 33.0001C29.6576 31.0013 29.1726 29.0323 28.2432 27.2628C27.3137 25.4934 25.9677 23.9766 24.3213 22.8434C25.909 21.4087 27.9747 20.6177 30.1146 20.6251H33.7813C36.0903 20.627 38.3042 21.5451 39.9369 23.1778C41.5696 24.8105 42.4877 27.0244 42.4896 29.3334Z" fill="#80CCC3"/>
<path d="M38.824 12.8336C38.8222 14.4165 38.2746 15.9504 37.2736 17.1767C36.2726 18.4029 34.8794 19.2465 33.3289 19.5653C31.7784 19.884 30.1654 19.6583 28.7618 18.9263C27.3583 18.1943 26.2501 17.0008 25.624 15.5469C25.8676 14.6631 25.9909 13.7504 25.9907 12.8336C25.9909 11.9228 25.8676 11.0162 25.624 10.1386C26.2451 8.68065 27.3508 7.48204 28.7539 6.74557C30.1571 6.00909 31.7716 5.77997 33.3243 6.09698C34.877 6.41398 36.2725 7.25764 37.2746 8.48521C38.2768 9.71278 38.8242 11.2489 38.824 12.8336Z" fill="#80CCC3"/>
</svg>
