<svg width="57" height="46" viewBox="0 0 57 46" fill="none" xmlns="http://www.w3.org/2000/svg">
<ellipse cx="33.3543" cy="23.5" rx="23.1707" ry="22.5" fill="#FFE8E8"/>
<g clip-path="url(#clip0_57_8681)">
<path d="M23.5775 34.7914C22.2981 34.7716 21.0646 34.3117 20.0847 33.489L13.6319 27.8058C12.6165 26.857 11.0638 26.7819 9.96151 27.6282L0.785634 34.3769V38.7576C0.719686 39.9328 1.61904 40.9389 2.7942 41.0048C2.85471 41.0082 2.91544 41.009 2.97606 41.0072H35.4766C36.779 41.0072 38.0814 40.06 38.0814 38.7576V27.273L26.419 34.0217C25.5617 34.5371 24.5778 34.8036 23.5775 34.7914Z" fill="#F97C7C"/>
<path d="M23.1038 23.3068C24.5424 23.3068 25.7086 22.1406 25.7086 20.702C25.7086 19.2634 24.5424 18.0972 23.1038 18.0972C21.6652 18.0972 20.499 19.2634 20.499 20.702C20.499 22.1406 21.6652 23.3068 23.1038 23.3068Z" fill="#F97C7C"/>
<path d="M44.2377 7.61878C43.8598 7.10389 43.276 6.77959 42.6393 6.73076L10.3755 3.00121C9.74647 2.94852 9.11872 3.11588 8.59953 3.47485C8.13971 3.87417 7.82708 4.41614 7.7115 5.01408L7.17871 9.63165H35.4762C38.174 9.69284 40.3555 11.8483 40.449 14.5452V35.4426C40.449 35.3242 40.9818 35.2058 41.2186 34.969C41.7088 34.5841 41.993 33.9938 41.9882 33.3706L44.7705 9.33557C44.832 8.71473 44.6398 8.09548 44.2377 7.61878Z" fill="#F97C7C"/>
<path d="M35.4752 11.9995H2.97461C1.6722 11.9995 0.78418 13.2427 0.78418 14.5451V31.417L8.5985 25.7338C10.5821 24.2623 13.3263 24.386 15.1697 26.0298L21.6816 31.7129C22.6636 32.5466 24.0661 32.6654 25.1743 32.0089L38.0799 24.4906V14.5451C37.9903 13.1553 36.8666 12.0572 35.4752 11.9995ZM23.1024 25.6745C20.3561 25.6745 18.1296 23.4482 18.1296 20.7017C18.1296 17.9554 20.356 15.7289 23.1024 15.7289C25.8488 15.7289 28.0752 17.9553 28.0752 20.7017C28.0752 23.4482 25.8489 25.6745 23.1024 25.6745Z" fill="#F97C7C"/>
</g>
<defs>
<clipPath id="clip0_57_8681">
<rect width="44" height="44" fill="white" transform="translate(0.782227)"/>
</clipPath>
</defs>
</svg>
