<svg width="57" height="45" viewBox="0 0 57 45" fill="none" xmlns="http://www.w3.org/2000/svg">
<ellipse cx="33.3543" cy="22.5" rx="23.1707" ry="22.5" fill="#EDDFFF"/>
<g clip-path="url(#clip0_57_8697)">
<path d="M33.6393 0H7.92505C3.98211 0.0046875 0.786914 3.19989 0.782227 7.14282V32.8571C0.786914 36.8 3.98211 39.9952 7.92505 39.9999H33.6393C37.5823 39.9952 40.7775 36.8 40.7821 32.8571V7.14282C40.7775 3.19989 37.5823 0.0046875 33.6393 0ZM27.9251 21.4286H22.2108V27.1429C22.2108 27.9319 21.5712 28.5715 20.7822 28.5715C19.9932 28.5715 19.3536 27.9319 19.3536 27.1429V21.4286H13.6394C12.8504 21.4286 12.2108 20.789 12.2108 20C12.2108 19.211 12.8504 18.5714 13.6394 18.5714H19.3537V12.8571C19.3537 12.0681 19.9933 11.4285 20.7823 11.4285C21.5713 11.4285 22.2108 12.0681 22.2108 12.8571V18.5714H27.9251C28.7141 18.5714 29.3537 19.211 29.3537 20C29.3537 20.789 28.714 21.4286 27.9251 21.4286Z" fill="#936ECE"/>
</g>
<defs>
<clipPath id="clip0_57_8697">
<rect width="40" height="40" fill="white" transform="translate(0.782227)"/>
</clipPath>
</defs>
</svg>
