<svg width="57" height="50" viewBox="0 0 57 50" fill="none" xmlns="http://www.w3.org/2000/svg">
<ellipse cx="33.3543" cy="27.5" rx="23.1707" ry="22.5" fill="#FFF2E5"/>
<path fill-rule="evenodd" clip-rule="evenodd" d="M26.4482 2.75C21.1352 2.75 16.8232 7.062 16.8232 12.375C16.8232 17.688 21.1352 22 26.4482 22C31.7612 22 36.0732 17.688 36.0732 12.375C36.0732 7.062 31.7612 2.75 26.4482 2.75ZM27.8232 11V9.16667C27.8232 8.40767 27.2072 7.79167 26.4482 7.79167C25.6892 7.79167 25.0732 8.40767 25.0732 9.16667V11H23.2399C22.4809 11 21.8649 11.616 21.8649 12.375C21.8649 13.134 22.4809 13.75 23.2399 13.75H25.0732V15.5833C25.0732 16.3423 25.6892 16.9583 26.4482 16.9583C27.2072 16.9583 27.8232 16.3423 27.8232 15.5833V13.75H29.6566C30.4156 13.75 31.0316 13.134 31.0316 12.375C31.0316 11.616 30.4156 11 29.6566 11H27.8232Z" fill="#CC9363"/>
<path fill-rule="evenodd" clip-rule="evenodd" d="M4.44824 6.4165H7.43108C7.65108 6.4165 7.83991 6.57234 7.88024 6.78867L9.86208 17.2148C10.0051 17.961 10.7237 18.4505 11.4699 18.3093C12.2161 18.1682 12.7056 17.4477 12.5644 16.7015C12.5644 16.7015 11.1894 9.47267 10.5826 6.27534C10.2947 4.76284 8.97108 3.6665 7.43108 3.6665H4.44824C3.68924 3.6665 3.07324 4.2825 3.07324 5.0415C3.07324 5.8005 3.68924 6.4165 4.44824 6.4165Z" fill="#CC9363"/>
<path d="M34.1299 39.875C35.6487 39.875 36.8799 38.6438 36.8799 37.125C36.8799 35.6062 35.6487 34.375 34.1299 34.375C32.6111 34.375 31.3799 35.6062 31.3799 37.125C31.3799 38.6438 32.6111 39.875 34.1299 39.875Z" fill="#CC9363"/>
<path d="M18.5459 39.875C20.0647 39.875 21.2959 38.6438 21.2959 37.125C21.2959 35.6062 20.0647 34.375 18.5459 34.375C17.0271 34.375 15.7959 35.6062 15.7959 37.125C15.7959 38.6438 17.0271 39.875 18.5459 39.875Z" fill="#CC9363"/>
<path fill-rule="evenodd" clip-rule="evenodd" d="M15.0729 11H10.297C9.88452 11 9.49585 11.1852 9.23369 11.5042C8.97335 11.8213 8.86885 12.2412 8.94952 12.6445C8.94952 12.6445 10.99 22.847 12.0259 28.0298C12.497 30.3875 14.5669 32.0833 16.9704 32.0833H34.7904C37.1939 32.0833 39.2637 30.3875 39.7349 28.0298C40.4719 24.3467 41.7149 18.128 42.373 14.8372C42.5619 13.8948 42.318 12.9177 41.7094 12.1752C41.0989 11.4308 40.1895 11 39.227 11H37.8245C37.8795 11.451 37.907 11.9093 37.907 12.375C37.907 18.6982 32.7719 23.8333 26.4487 23.8333C20.1255 23.8333 14.9904 18.6982 14.9904 12.375C14.9904 11.9093 15.0179 11.451 15.0729 11Z" fill="#CC9363"/>
</svg>
