<svg width="18" height="24" viewBox="0 0 18 24" fill="none" xmlns="http://www.w3.org/2000/svg">
<path d="M13.686 12.6707L13.6862 12.6706L12.1467 8.41678C13.3703 6.273 12.0462 3.47764 9.66068 3.0221V0C9.66063 0 8.18665 0 8.1865 0L8.18675 3.022C8.18665 3.022 8.1866 3.02205 8.1865 3.02205C5.8317 3.46378 4.4918 6.23418 5.67217 8.36499L2.7197 16.5861L2.72314 13.1764H0.585938L0.595764 22.9348L1.65454 24L2.71331 22.9348L2.71527 20.9915L5.33936 13.6584H12.4761L13.359 16.0983C13.7668 15.833 14.2444 15.6659 14.7573 15.631L13.686 12.6707ZM8.1865 5.89572H9.66043V7.36965H8.1865V5.89572ZM5.86801 12.1845L6.78386 9.6312C7.97902 10.5281 9.82114 10.5396 11.0277 9.65625L11.9426 12.1845H5.86801Z" fill="#47311C"/>
<path d="M16.6691 20.9717C16.2721 21.2557 15.802 21.4433 15.293 21.5008L16.0304 23.5388L17.0121 23.8286L17.4164 23.0376L16.6691 20.9717Z" fill="#47311C"/>
<path d="M16.4322 18.5716C16.4367 17.7537 15.7515 17.0926 14.9583 17.0977C14.1451 17.0978 13.484 17.7606 13.4844 18.5716C13.5654 20.5267 16.3513 20.5266 16.4322 18.5716Z" fill="#47311C"/>
<path d="M0.583505 11.7024H2.72365L2.72513 10.0732H0.582031L0.583505 11.7024Z" fill="#47311C"/>
</svg>
