<svg width="24" height="22" viewBox="0 0 24 22" fill="none" xmlns="http://www.w3.org/2000/svg">
<path d="M17.0625 0.5C16.1133 0.501104 15.1744 0.696659 14.3037 1.0746C13.433 1.45255 12.649 2.00487 12 2.6975C11.0489 1.68242 9.8146 0.976692 8.45735 0.671945C7.1001 0.367199 5.68258 0.477505 4.38881 0.988544C3.09504 1.49958 1.98478 2.38775 1.20215 3.53775C0.419527 4.68775 0.000684862 6.04646 0 7.4375C0 14.345 11.1412 21.125 11.625 21.3913C11.7416 21.4613 11.8752 21.4984 12.0112 21.4984C12.1473 21.4984 12.2809 21.4613 12.3975 21.3913C12.8588 21.125 24 14.345 24 7.4375C23.998 5.59817 23.2665 3.83474 21.9659 2.53414C20.6653 1.23354 18.9018 0.501985 17.0625 0.5ZM12 19.865C10.0612 18.6275 1.5 12.845 1.5 7.4375C1.50096 6.28248 1.86969 5.15777 2.55276 4.22637C3.23582 3.29498 4.19772 2.60528 5.29906 2.25725C6.4004 1.90922 7.58395 1.92093 8.67819 2.29068C9.77243 2.66043 10.7205 3.36902 11.385 4.31375C11.4542 4.41202 11.5461 4.49221 11.6528 4.54756C11.7595 4.60291 11.8779 4.6318 11.9981 4.6318C12.1183 4.6318 12.2368 4.60291 12.3435 4.54756C12.4502 4.49221 12.542 4.41202 12.6112 4.31375C13.2752 3.3674 14.2235 2.65728 15.3184 2.28648C16.4134 1.91569 17.598 1.90352 18.7004 2.25174C19.8027 2.59996 20.7654 3.29044 21.4486 4.22295C22.1319 5.15546 22.5002 6.28147 22.5 7.4375C22.5 12.8412 13.9388 18.6238 12 19.865Z" fill="#6B7187"/>
</svg>
