<svg xmlns="http://www.w3.org/2000/svg" viewBox="0 0 223.95 52.93"><defs><style>.cls-1{fill:#364366;}.cls-2{fill:#9b9eab;}.cls-3{fill:#f9f3ed;}</style></defs><title>Logo_Blue 2</title><g id="Layer_2" data-name="Layer 2"><g id="Layer_1-2" data-name="Layer 1"><path class="cls-1" d="M66.24,18.47v3.69h.09a8.93,8.93,0,0,1,2.13-2.88A5.09,5.09,0,0,1,72,18.07a4.4,4.4,0,0,1,3,1,3.45,3.45,0,0,1,1.14,2.75,3.09,3.09,0,0,1-.63,2.06,2.56,2.56,0,0,1-2,.75,4,4,0,0,1-1.84-.42,1.58,1.58,0,0,1-.84-1.56,4.32,4.32,0,0,1,0-.46c0-.22.06-.45.11-.7S71,21,71,20.8s0-.33,0-.35a1.93,1.93,0,0,0-.13-.55.81.81,0,0,0-.29-.35.9.9,0,0,0-.59-.16,2.21,2.21,0,0,0-1.1.42A4.53,4.53,0,0,0,67.73,21a7.94,7.94,0,0,0-1,1.91,7.36,7.36,0,0,0-.41,2.52V36.7H69.8v.61H58.11V36.7H61V19.08H58.11v-.61Z"/><path class="cls-1" d="M78.06,24.49a10.14,10.14,0,0,1,2.08-3.23,11.25,11.25,0,0,1,3.39-2.44,10.55,10.55,0,0,1,4.63-1,12.36,12.36,0,0,1,3,.35,8.27,8.27,0,0,1,2.35,1,4.92,4.92,0,0,1,1.54,1.54,3.83,3.83,0,0,1,.55,2,2.44,2.44,0,0,1-.75,2,3.29,3.29,0,0,1-2.11.6A4.58,4.58,0,0,1,90.91,25a1.51,1.51,0,0,1-.86-1.56,3.29,3.29,0,0,1,.11-.61c.07-.29.15-.6.22-.93s.14-.62.22-.92a3.29,3.29,0,0,0,.11-.61A1.59,1.59,0,0,0,89.94,19a3.46,3.46,0,0,0-1.91-.5,3.87,3.87,0,0,0-2.51.75,4.76,4.76,0,0,0-1.42,2,10.14,10.14,0,0,0-.66,2.9c-.11,1.1-.16,2.26-.16,3.5s0,2.28.14,3.42a10.18,10.18,0,0,0,.7,3.12,5.48,5.48,0,0,0,1.67,2.29,4.68,4.68,0,0,0,3,.87,6.3,6.3,0,0,0,5-2.13,6.68,6.68,0,0,0,1.12-1.71,7,7,0,0,0,.46-1.25l.62.22a10.24,10.24,0,0,1-.68,1.73A6.1,6.1,0,0,1,94,35.93a7.61,7.61,0,0,1-2.26,1.38,9.27,9.27,0,0,1-3.5.58c-.38,0-.91,0-1.6-.11a12.48,12.48,0,0,1-2.24-.49,13.69,13.69,0,0,1-2.44-1A8.59,8.59,0,0,1,78,31.74a10.74,10.74,0,0,1-.64-3.87A9.08,9.08,0,0,1,78.06,24.49Z"/><path class="cls-1" d="M101.47,36.7V6.26h-2.9V5.64h8.26V22.69h.09a12.73,12.73,0,0,1,.59-1.17A6.46,6.46,0,0,1,108.76,20a8.1,8.1,0,0,1,2.13-1.34,8.21,8.21,0,0,1,3.28-.57,6,6,0,0,1,4.5,1.67,6.33,6.33,0,0,1,1.6,4.57V36.7h3v.61h-11V36.7h2.72V22.82a4.09,4.09,0,0,0-.74-2.7,2.56,2.56,0,0,0-2-.86,4.41,4.41,0,0,0-2,.5,5,5,0,0,0-1.69,1.52,8.28,8.28,0,0,0-1.16,2.5,12.67,12.67,0,0,0-.44,3.52v9.4h2.77v.61h-11V36.7Z"/><path class="cls-1" d="M127.17,30.94c.35.83.71,1.61,1.08,2.38a9.18,9.18,0,0,0,1.29,2,6.15,6.15,0,0,0,1.8,1.43,5.64,5.64,0,0,0,2.59.54c.27,0,.62,0,1.06,0a3.22,3.22,0,0,0,1.29-.37,2.93,2.93,0,0,0,1.1-1,3.49,3.49,0,0,0,.46-2,2.92,2.92,0,0,0-.11-.81,2.2,2.2,0,0,0-.46-.86,3.82,3.82,0,0,0-1-.85,10.85,10.85,0,0,0-1.87-.86l-3.56-1.32a8.62,8.62,0,0,1-1.31-.59,5.27,5.27,0,0,1-1.3-1,5.34,5.34,0,0,1-1-1.47,4.88,4.88,0,0,1-.39-2,5.72,5.72,0,0,1,.52-2.42,6.17,6.17,0,0,1,1.48-2,7.16,7.16,0,0,1,2.28-1.36,8.14,8.14,0,0,1,2.92-.51,6.42,6.42,0,0,1,1.56.18c.48.12.92.24,1.32.37l1,.37a2.17,2.17,0,0,0,.73.18c.32,0,.53-.06.61-.18a1.47,1.47,0,0,0,.22-.39h.62v5.36h-.57c-.3-.7-.6-1.38-.9-2a7.36,7.36,0,0,0-1.1-1.69A4.7,4.7,0,0,0,136,18.89a5.54,5.54,0,0,0-2.29-.42,4.77,4.77,0,0,0-2.65.77,2.49,2.49,0,0,0-1.21,2.26,3.2,3.2,0,0,0,.09.7,2.15,2.15,0,0,0,.39.81,3.64,3.64,0,0,0,1,.84,8.65,8.65,0,0,0,1.76.81l3.73,1.28a8.6,8.6,0,0,1,3.6,2.19,5,5,0,0,1,1.23,3.47,5.43,5.43,0,0,1-.63,2.62,6.5,6.5,0,0,1-1.68,2,7.47,7.47,0,0,1-2.39,1.26,9.17,9.17,0,0,1-2.81.44,8.89,8.89,0,0,1-1.71-.18c-.62-.12-1.21-.26-1.78-.42s-1.09-.3-1.56-.41a4.8,4.8,0,0,0-1.1-.18.78.78,0,0,0-.51.13,1.28,1.28,0,0,0-.28.48h-.62V30.94Z"/><path class="cls-1" d="M149.11,13.24a5.26,5.26,0,0,0,1.34.18,5.2,5.2,0,0,0,1.34-.18,10.5,10.5,0,0,0,1.34-.44v5.67h5.14v.61h-5.14V33.8a7.9,7.9,0,0,0,.09,1.23,3.36,3.36,0,0,0,.33,1,1.82,1.82,0,0,0,.7.73,2.5,2.5,0,0,0,1.21.26,2.81,2.81,0,0,0,1.43-.35,3.67,3.67,0,0,0,1-.9,5.13,5.13,0,0,0,.73-1.25,12.84,12.84,0,0,0,.46-1.36l.66.13a6,6,0,0,1-.9,2.39,4.84,4.84,0,0,1-1.45,1.38,4.89,4.89,0,0,1-1.74.64,11.06,11.06,0,0,1-1.76.16,9.39,9.39,0,0,1-3.53-.53A4.33,4.33,0,0,1,148.54,36a3.42,3.42,0,0,1-.68-1.71c-.06-.62-.09-1.19-.09-1.72V19.08h-2.94v-.61h2.94V12.8A11,11,0,0,0,149.11,13.24Z"/><path class="cls-1" d="M176,18.67a11.22,11.22,0,0,1,3.41,2.17A9.86,9.86,0,0,1,181.71,24a9.32,9.32,0,0,1,.81,3.84,9.48,9.48,0,0,1-.81,3.89,9.82,9.82,0,0,1-2.26,3.18A10.8,10.8,0,0,1,176,37.09a11.64,11.64,0,0,1-8.48,0,10.64,10.64,0,0,1-3.4-2.15,9.67,9.67,0,0,1-2.26-3.18,9.33,9.33,0,0,1-.82-3.89A9.17,9.17,0,0,1,161.9,24a9.71,9.71,0,0,1,2.26-3.19,11,11,0,0,1,3.4-2.17,11.37,11.37,0,0,1,8.48,0ZM174.48,36.5a4.74,4.74,0,0,0,1.43-2.13,11.18,11.18,0,0,0,.57-3c.07-1.14.11-2.3.11-3.47s0-2.32-.11-3.45a11.11,11.11,0,0,0-.57-3,4.74,4.74,0,0,0-1.43-2.13,4.84,4.84,0,0,0-5.36,0,4.72,4.72,0,0,0-1.42,2.13,11.49,11.49,0,0,0-.58,3c-.07,1.13-.11,2.28-.11,3.45s0,2.33.11,3.47a11.57,11.57,0,0,0,.58,3,4.72,4.72,0,0,0,1.42,2.13,4.84,4.84,0,0,0,5.36,0Z"/><path class="cls-1" d="M193.94,18.47v3.69H194a9.23,9.23,0,0,1,2.13-2.88,5.1,5.1,0,0,1,3.54-1.21,4.42,4.42,0,0,1,3,1,3.45,3.45,0,0,1,1.14,2.75,3.1,3.1,0,0,1-.64,2.06,2.55,2.55,0,0,1-2,.75,4.06,4.06,0,0,1-1.85-.42,1.59,1.59,0,0,1-.83-1.56,3.64,3.64,0,0,1,0-.46c0-.22.07-.45.11-.7s.08-.48.11-.68.05-.33.05-.35a1.89,1.89,0,0,0-.14-.55.78.78,0,0,0-.28-.35.92.92,0,0,0-.6-.16,2.18,2.18,0,0,0-1.09.42A4.53,4.53,0,0,0,195.44,21a7.94,7.94,0,0,0-1,1.91,7.12,7.12,0,0,0-.42,2.52V36.7h3.47v.61H185.81V36.7h2.86V19.08h-2.86v-.61Z"/><path class="cls-1" d="M211,28.26c0,1.06,0,2.12.13,3.19a9,9,0,0,0,.7,2.9,5.39,5.39,0,0,0,1.67,2.13,5,5,0,0,0,3.08.83,6.2,6.2,0,0,0,3-.65,7.3,7.3,0,0,0,2-1.52,6.62,6.62,0,0,0,1.14-1.69,4.87,4.87,0,0,0,.42-1.23l.61.22a7.42,7.42,0,0,1-.74,1.78A7.15,7.15,0,0,1,221.49,36a8.07,8.07,0,0,1-2.29,1.36,8.91,8.91,0,0,1-3.29.55,13,13,0,0,1-4.26-.68,10.31,10.31,0,0,1-3.45-2,9.17,9.17,0,0,1-2.31-3.16,10.41,10.41,0,0,1-.83-4.24,9,9,0,0,1,.79-3.69A10.31,10.31,0,0,1,208,21a11.14,11.14,0,0,1,3.25-2.24,9.58,9.58,0,0,1,4-.86,10,10,0,0,1,3.08.49,8.12,8.12,0,0,1,2.76,1.49,7.64,7.64,0,0,1,2,2.61,8.75,8.75,0,0,1,.79,3.85H211Zm7-5.53c0-.32,0-.72-.05-1.19a5,5,0,0,0-.3-1.4,2.83,2.83,0,0,0-.86-1.19,2.57,2.57,0,0,0-1.65-.48,3.45,3.45,0,0,0-2.31.7,4.2,4.2,0,0,0-1.2,1.78,8.62,8.62,0,0,0-.51,2.33c-.07.83-.12,1.63-.15,2.39h7Z"/><circle class="cls-2" cx="26.46" cy="26.46" r="26.46"/><circle class="cls-1" cx="26.46" cy="26.46" r="21.35"/><path class="cls-3" d="M22.22,37.35a5.57,5.57,0,0,1-2.85-.66A4,4,0,0,1,17.72,35a5.3,5.3,0,0,1-.53-2.33A4.38,4.38,0,0,1,17.92,30a5.48,5.48,0,0,1,1.9-1.63,14.63,14.63,0,0,1,2.44-1l2.44-.81a6.72,6.72,0,0,0,1.88-.94,1.7,1.7,0,0,0,.71-1.41V21.1A4.72,4.72,0,0,0,27,19.54a2.42,2.42,0,0,0-.86-1.2,2.78,2.78,0,0,0-1.71-.47,4.47,4.47,0,0,0-1.31.19,2.93,2.93,0,0,0-1.13.6,3.48,3.48,0,0,1,1.79,1.24,3.17,3.17,0,0,1,.58,1.84,2.72,2.72,0,0,1-1,2.19,3.4,3.4,0,0,1-2.27.81,2.72,2.72,0,0,1-2.19-.9,3.21,3.21,0,0,1-.77-2.18,3.07,3.07,0,0,1,.56-1.89,5.1,5.1,0,0,1,1.65-1.41,8.22,8.22,0,0,1,2.63-.94,17,17,0,0,1,3.26-.3,13.77,13.77,0,0,1,3.25.36,5.23,5.23,0,0,1,2.53,1.4,4,4,0,0,1,1,2.11,18,18,0,0,1,.23,3.15V34.27a3.46,3.46,0,0,0,.17,1.3.55.55,0,0,0,.54.35,1.21,1.21,0,0,0,.64-.18l.6-.42.41.64a5.68,5.68,0,0,1-1.95,1,8,8,0,0,1-2.44.36A5.68,5.68,0,0,1,29,37a2.45,2.45,0,0,1-1.2-1.07,3.55,3.55,0,0,1-.4-1.5,6.64,6.64,0,0,1-2.06,2.15A5.61,5.61,0,0,1,22.22,37.35Zm3.12-2.7a2.22,2.22,0,0,0,1.07-.25,2.56,2.56,0,0,0,.88-.84V25.75a4.34,4.34,0,0,1-.81,1c-.34.31-.69.62-1.07.94a10.33,10.33,0,0,0-1.07,1,4.45,4.45,0,0,0-.82,1.33,4.7,4.7,0,0,0-.32,1.86,3,3,0,0,0,.6,2.1A2,2,0,0,0,25.34,34.65Z"/></g></g></svg>