<svg width="14" height="12" viewBox="0 0 14 12" fill="none" xmlns="http://www.w3.org/2000/svg">
<path fill-rule="evenodd" clip-rule="evenodd" d="M0.25 1.5C0.25 1.08579 0.58579 0.75 1 0.75H13C13.4142 0.75 13.75 1.08579 13.75 1.5C13.75 1.91421 13.4142 2.25 13 2.25H1C0.58579 2.25 0.25 1.91421 0.25 1.5Z" fill="#363944"/>
<path fill-rule="evenodd" clip-rule="evenodd" d="M0.25 6C0.25 5.58578 0.58579 5.25 1 5.25H13C13.4142 5.25 13.75 5.58578 13.75 6C13.75 6.41422 13.4142 6.75 13 6.75H1C0.58579 6.75 0.25 6.41422 0.25 6Z" fill="#363944"/>
<path fill-rule="evenodd" clip-rule="evenodd" d="M0.25 10.5C0.25 10.0858 0.58579 9.75 1 9.75H10C10.4142 9.75 10.75 10.0858 10.75 10.5C10.75 10.9142 10.4142 11.25 10 11.25H1C0.58579 11.25 0.25 10.9142 0.25 10.5Z" fill="#363944"/>
</svg>
