<svg width="18" height="22" viewBox="0 0 18 22" fill="red" xmlns="http://www.w3.org/2000/svg">
<path d="M15.3305 11.2521C15.2546 11.1726 15.1639 11.1093 15.0639 11.066C14.9639 11.0228 14.8564 11.0003 14.7479 11C14.6393 10.9997 14.5317 11.0215 14.4315 11.0643C14.3312 11.107 14.2403 11.1697 14.1639 11.2489C14.0876 11.328 14.0273 11.4219 13.9868 11.5251C13.9462 11.6283 13.926 11.7387 13.9275 11.85C13.929 11.9612 13.9521 12.0711 13.9955 12.1731C14.0388 12.2751 14.1015 12.3673 14.18 12.4442C14.8741 13.1442 15.4248 13.9792 15.7998 14.9002C16.1748 15.8213 16.3665 16.8098 16.3636 17.8078C16.3636 18.8333 13.4952 20.3231 9 20.3231C4.50485 20.3231 1.63639 18.8325 1.63639 17.8061C1.63364 16.815 1.82275 15.8331 2.19279 14.9174C2.56282 14.0017 3.10642 13.1703 3.79213 12.4713C3.86969 12.3938 3.93146 12.3013 3.97386 12.1992C4.01626 12.097 4.03845 11.9873 4.03913 11.8763C4.03982 11.7653 4.01899 11.6552 3.97786 11.5526C3.93672 11.4499 3.8761 11.3566 3.79951 11.2781C3.72292 11.1996 3.63188 11.1375 3.53168 11.0953C3.43147 11.0532 3.3241 11.0318 3.21579 11.0325C3.10747 11.0332 3.00037 11.056 2.9007 11.0994C2.80102 11.1429 2.71076 11.2062 2.63515 11.2857C1.79686 12.1402 1.13232 13.1566 0.679996 14.2762C0.227676 15.3957 -0.00343706 16.5961 3.86275e-05 17.8078C3.86275e-05 20.5307 4.63665 22 9 22C13.3633 22 18 20.5307 18 17.8078C18.0036 16.5879 17.7693 15.3796 17.3109 14.2538C16.8525 13.128 16.1792 12.1075 15.3305 11.2521Z" fill="#6B7187"/>
<path d="M9 12C10.1867 12 11.3467 11.6481 12.3334 10.9888C13.3201 10.3295 14.0891 9.39246 14.5433 8.2961C14.9974 7.19975 15.1162 5.99335 14.8847 4.82946C14.6532 3.66557 14.0818 2.59648 13.2426 1.75736C12.4035 0.918247 11.3344 0.346802 10.1705 0.115291C9.00665 -0.11622 7.80025 0.0025997 6.7039 0.456725C5.60754 0.910851 4.67047 1.67989 4.01118 2.66658C3.35189 3.65328 3 4.81331 3 6C3.00184 7.59074 3.63457 9.11579 4.75939 10.2406C5.88421 11.3654 7.40926 11.9982 9 12ZM9 1.71429C9.84763 1.71429 10.6762 1.96564 11.381 2.43656C12.0858 2.90748 12.6351 3.57682 12.9595 4.35993C13.2839 5.14304 13.3687 6.00476 13.2034 6.8361C13.038 7.66745 12.6298 8.43109 12.0305 9.03046C11.4311 9.62983 10.6674 10.038 9.8361 10.2034C9.00475 10.3687 8.14304 10.2839 7.35993 9.95948C6.57682 9.63511 5.90748 9.0858 5.43656 8.38102C4.96564 7.67623 4.71429 6.84764 4.71429 6C4.71562 4.86377 5.16758 3.77446 5.97102 2.97102C6.77446 2.16759 7.86377 1.71563 9 1.71429Z" fill="#6B7187"/>
</svg>
