<svg width="26" height="26" viewBox="0 0 26 26" fill="none" xmlns="http://www.w3.org/2000/svg">
<path d="M9.7513 13.2708H7.58464C5.93317 13.2728 4.34993 13.9297 3.18217 15.0974C2.01441 16.2652 1.35748 17.8485 1.35547 19.4999C1.35604 20.2899 1.6701 21.0473 2.22868 21.6059C2.78726 22.1645 3.54469 22.4785 4.33464 22.4791H13.0013C13.7913 22.4785 14.5487 22.1645 15.1073 21.6059C15.6658 21.0473 15.9799 20.2899 15.9805 19.4999C15.9785 17.8485 15.3215 16.2652 14.1538 15.0974C12.986 13.9297 11.4028 13.2728 9.7513 13.2708Z" fill="#47311C"/>
<path d="M8.66927 12.7292C11.5112 12.7292 13.8151 10.4253 13.8151 7.58333C13.8151 4.74137 11.5112 2.4375 8.66927 2.4375C5.82731 2.4375 3.52344 4.74137 3.52344 7.58333C3.52344 10.4253 5.82731 12.7292 8.66927 12.7292Z" fill="#47311C"/>
<path d="M24.6479 17.3334C24.6482 17.7247 24.5714 18.1122 24.4217 18.4738C24.2721 18.8354 24.0527 19.1639 23.776 19.4406C23.4993 19.7173 23.1708 19.9367 22.8092 20.0863C22.4476 20.236 22.0601 20.3128 21.6688 20.3125H16.9779C17.0347 20.0454 17.0637 19.7731 17.0646 19.5C17.0654 18.319 16.7788 17.1554 16.2296 16.1099C15.6804 15.0643 14.885 14.168 13.9121 13.4984C14.8503 12.6506 16.071 12.1832 17.3354 12.1875H19.5021C20.8665 12.1887 22.1747 12.7312 23.1395 13.696C24.1043 14.6608 24.6468 15.969 24.6479 17.3334Z" fill="#47311C"/>
<path d="M22.4797 7.58335C22.4786 8.51872 22.155 9.42512 21.5635 10.1497C20.972 10.8743 20.1488 11.3728 19.2326 11.5612C18.3163 11.7495 17.3632 11.6161 16.5338 11.1836C15.7045 10.7511 15.0496 10.0458 14.6797 9.18668C14.8236 8.6644 14.8965 8.1251 14.8964 7.58335C14.8965 7.04515 14.8236 6.50943 14.6797 5.99085C15.0467 5.12934 15.7 4.42107 16.5292 3.98588C17.3583 3.55069 18.3124 3.41531 19.2299 3.60263C20.1473 3.78995 20.9719 4.28847 21.5641 5.01386C22.1563 5.73924 22.4798 6.64693 22.4797 7.58335V7.58335Z" fill="#47311C"/>
</svg>
